<svg xmlns="http://www.w3.org/2000/svg" xmlns:xlink="http://www.w3.org/1999/xlink" width="60" height="60" viewBox="0 0 60 60"><defs><style>.a{fill:none;}.b{isolation:isolate;}.c{clip-path:url(#a);}.d{fill:#71858a;}.e{fill:#1d1d1b;}.f{fill:#f3ddc6;}.aa,.ab,.ac,.ad,.g,.h,.n,.o,.q,.s,.t,.u,.v,.w,.x,.y,.z{mix-blend-mode:multiply;}.g{fill:url(#b);}.ab,.ad,.h,.z{opacity:0.5;}.h{fill:url(#c);}.i{fill:#e73e51;}.j{fill:#2bbbe7;}.k{fill:url(#d);}.l{fill:#ee7f7a;}.m{fill:url(#e);}.n,.o,.x,.y{opacity:0.6;}.n{fill:url(#f);}.o{fill:url(#g);}.p{fill:url(#h);}.q{fill:url(#i);}.r{fill:#fff;}.s{fill:url(#j);}.t{fill:url(#k);}.u{fill:url(#l);}.v{fill:url(#m);}.w{fill:url(#n);}.x{fill:url(#o);}.y{fill:url(#p);}.z{fill:url(#q);}.aa{opacity:0.9;fill:url(#r);}.ab{fill:url(#s);}.ac{fill:#f0c7bb;}.ad{fill:url(#t);}</style><clipPath id="a"><circle class="a" cx="30" cy="30" r="30"/></clipPath><linearGradient id="b" x1="30" y1="60" x2="30" y2="41.54" gradientUnits="userSpaceOnUse"><stop offset="0.41" stop-color="#fff" stop-opacity="0"/><stop offset="0.43" stop-color="#fdf8f7" stop-opacity="0.12"/><stop offset="0.49" stop-color="#faede9" stop-opacity="0.32"/><stop offset="0.55" stop-color="#f7e3dd" stop-opacity="0.5"/><stop offset="0.61" stop-color="#f5dad2" stop-opacity="0.66"/><stop offset="0.68" stop-color="#f3d3ca" stop-opacity="0.78"/><stop offset="0.74" stop-color="#f2cec3" stop-opacity="0.88"/><stop offset="0.82" stop-color="#f1cabf" stop-opacity="0.95"/><stop offset="0.9" stop-color="#f0c8bc" stop-opacity="0.99"/><stop offset="1" stop-color="#f0c7bb"/></linearGradient><linearGradient id="c" x1="-50.98" y1="-7.64" x2="-50.98" y2="-10.13" gradientTransform="translate(81 56.33)" gradientUnits="userSpaceOnUse"><stop offset="0" stop-color="#f0c7bb"/><stop offset="0.11" stop-color="#f1cbc0" stop-opacity="0.93"/><stop offset="0.32" stop-color="#f4d6cd" stop-opacity="0.73"/><stop offset="0.63" stop-color="#f9e8e3" stop-opacity="0.42"/><stop offset="1" stop-color="#fff" stop-opacity="0"/></linearGradient><linearGradient id="d" x1="40.92" y1="32.31" x2="45.53" y2="32.31" gradientUnits="userSpaceOnUse"><stop offset="0" stop-color="#fff" stop-opacity="0"/><stop offset="1" stop-color="#f0c7bb"/></linearGradient><linearGradient id="e" x1="14.17" y1="32.31" x2="18.78" y2="32.31" xlink:href="#d"/><linearGradient id="f" x1="42.73" y1="24.95" x2="45.04" y2="24.95" gradientUnits="userSpaceOnUse"><stop offset="0" stop-color="#1d1d1b" stop-opacity="0"/><stop offset="0.4" stop-color="#1d1d1b" stop-opacity="0.11"/><stop offset="0.72" stop-color="#1d1d1b" stop-opacity="0.45"/><stop offset="1" stop-color="#1d1d1b"/></linearGradient><linearGradient id="g" x1="14.96" y1="24.95" x2="17.26" y2="24.95" xlink:href="#f"/><linearGradient id="h" x1="15.93" y1="27.16" x2="43.92" y2="27.16" xlink:href="#d"/><linearGradient id="i" x1="29.98" y1="41.53" x2="29.98" y2="39.29" gradientUnits="userSpaceOnUse"><stop offset="0" stop-color="#f0c7bb"/><stop offset="0.18" stop-color="#f2d0c6" stop-opacity="0.84"/><stop offset="0.58" stop-color="#f8e6e1" stop-opacity="0.45"/><stop offset="1" stop-color="#fff" stop-opacity="0"/></linearGradient><linearGradient id="j" x1="30.02" y1="42.43" x2="30.02" y2="41.81" gradientUnits="userSpaceOnUse"><stop offset="0" stop-color="#f0c7bb"/><stop offset="0.18" stop-color="#f0c8bc" stop-opacity="0.99"/><stop offset="0.31" stop-color="#f1cabf" stop-opacity="0.95"/><stop offset="0.43" stop-color="#f2cec3" stop-opacity="0.88"/><stop offset="0.54" stop-color="#f3d3ca" stop-opacity="0.78"/><stop offset="0.65" stop-color="#f5dad2" stop-opacity="0.66"/><stop offset="0.76" stop-color="#f7e3dd" stop-opacity="0.5"/><stop offset="0.86" stop-color="#faede9" stop-opacity="0.32"/><stop offset="0.95" stop-color="#fdf8f7" stop-opacity="0.12"/><stop offset="1" stop-color="#fff" stop-opacity="0"/></linearGradient><linearGradient id="k" x1="-204.88" y1="-118.81" x2="-204.88" y2="-119.43" gradientTransform="translate(-175.94 -82.95) rotate(180)" xlink:href="#j"/><linearGradient id="l" x1="-207" y1="-118.81" x2="-207" y2="-119.43" gradientTransform="translate(-175.94 -82.95) rotate(180)" xlink:href="#j"/><radialGradient id="m" cx="-63.33" cy="31.31" r="1.12" gradientTransform="translate(307.12 -31.41) scale(4.47 2.05)" xlink:href="#i"/><radialGradient id="n" cx="-60.58" cy="31.31" r="1.12" gradientTransform="translate(307.12 -31.41) scale(4.47 2.05)" xlink:href="#i"/><linearGradient id="o" x1="20.5" y1="26.33" x2="25.29" y2="26.33" xlink:href="#f"/><linearGradient id="p" x1="34.41" y1="27.17" x2="39.2" y2="27.17" xlink:href="#f"/><linearGradient id="q" x1="14.38" y1="16.87" x2="45.62" y2="16.87" xlink:href="#f"/><linearGradient id="r" x1="-205.95" y1="-129.68" x2="-205.95" y2="-131.49" gradientTransform="translate(-175.94 -96.8) rotate(180)" xlink:href="#c"/><linearGradient id="s" x1="11.54" y1="57.69" x2="48.46" y2="57.69" xlink:href="#f"/><linearGradient id="t" x1="-51.05" y1="-4.26" x2="-51.05" y2="-6.07" xlink:href="#c"/></defs><title>avatar4</title><g class="b"><g class="c"><circle class="d" cx="30" cy="30" r="30"/><polygon class="e" points="40.38 50.77 35.48 50.77 24.52 50.77 19.61 50.77 16.15 60 24.52 60 35.48 60 43.85 60 40.38 50.77"/><path class="f" d="M34.62,47.08V41.54H25.38v5.54c-0.53,2.26-2.55,5-9.23,5,0,0,4.62,7.95,13.85,7.95s13.85-7.95,13.85-7.95C37.17,52.05,35.15,49.34,34.62,47.08Z"/><path class="g" d="M34.62,47.08V41.54H25.38v5.54c-0.53,2.26-2.55,5-9.23,5,0,0,4.62,7.95,13.85,7.95s13.85-7.95,13.85-7.95C37.17,52.05,35.15,49.34,34.62,47.08Z"/><path class="h" d="M30,46.52h0c-1.19,0-2.16-.44-2.16-0.3,0,0.43,1.51,2.46,2.16,2.46v0c0.65,0,2.16-2,2.16-2.46C32.18,46.08,31.21,46.52,30,46.52Z"/><path class="i" d="M41.35,50.77H39.22s0,0,0,.06c0,2.55-4.13,4.62-9.23,4.62s-9.23-2.07-9.23-4.62c0,0,0,0,0-.06H18.65a7.11,7.11,0,0,0-7.12,7.12v6.73H48.46V57.88A7.11,7.11,0,0,0,41.35,50.77Z"/><path class="j" d="M20.77,50.83s0,0,0-.06H18.65a7.11,7.11,0,0,0-7.12,7.12V60h0a7.75,7.75,0,0,1,7.12-4.62L30,55.45C24.9,55.45,20.77,53.38,20.77,50.83Z"/><path class="j" d="M41.35,50.77H39.22s0,0,0,.06c0,2.55-4.13,4.62-9.23,4.62l11.35-.06A7.75,7.75,0,0,1,48.46,60h0V57.88A7.11,7.11,0,0,0,41.35,50.77Z"/><path class="f" d="M18.78,32.31c0,2.55-.16,4.62-1.44,4.62s-3.18-2.07-3.18-4.62,0.6-4.62,1.87-4.62S18.78,29.76,18.78,32.31Z"/><path class="f" d="M40.92,32.31c0,2.55.16,4.62,1.44,4.62s3.18-2.07,3.18-4.62-0.6-4.62-1.87-4.62S40.92,29.76,40.92,32.31Z"/><path class="k" d="M40.92,32.31c0,2.55.16,4.62,1.44,4.62s3.18-2.07,3.18-4.62-0.6-4.62-1.87-4.62S40.92,29.76,40.92,32.31Z"/><path class="l" d="M42.73,36C44,36,45,31.06,45,25S44,13.9,42.73,13.9"/><path class="m" d="M18.78,32.31c0,2.55-.16,4.62-1.44,4.62s-3.18-2.07-3.18-4.62,0.6-4.62,1.87-4.62S18.78,29.76,18.78,32.31Z"/><path class="l" d="M17.26,36C16,36,15,31.06,15,25S16,13.9,17.26,13.9"/><path class="n" d="M42.73,36C44,36,45,31.06,45,25S44,13.9,42.73,13.9"/><path class="o" d="M17.26,36C16,36,15,31.06,15,25S16,13.9,17.26,13.9"/><path class="f" d="M43.85,30C43.85,43.14,33,46.15,30,46.15S16.15,43.14,16.15,30C16.15,20.06,13,8.18,30,8.18,45.79,8.18,43.85,19,43.85,30Z"/><path class="p" d="M43.85,30C43.85,43.14,33,46.15,30,46.15S16.15,43.14,16.15,30C16.15,20.06,13,8.18,30,8.18,45.79,8.18,43.85,19,43.85,30Z"/><path class="q" d="M30,39.85h0c-3.61,0-6.53-.76-6.53-0.51,0,0.75,3.41,2.19,6.53,2.19h0c3.12,0,6.53-1.45,6.53-2.19C36.54,39.09,33.61,39.85,30,39.85Z"/><path class="r" d="M30,40.67h0c-2.55,0-4.62-.4-4.62-0.27,0,0.39,2.07,1.14,4.62,1.14h0c2.55,0,4.62-.75,4.62-1.14C34.65,40.27,32.58,40.67,30,40.67Z"/><path class="s" d="M30,42h0c-1.19,0-2.16-.21-2.16-0.14a4.39,4.39,0,0,0,2.16.6h0a4.39,4.39,0,0,0,2.16-.6C32.18,41.76,31.21,42,30,42Z"/><path class="t" d="M28.94,36.32h0c0.43,0,.78.21,0.78,0.14a1.12,1.12,0,0,0-.78-0.6h0a1.12,1.12,0,0,0-.78.6C28.16,36.53,28.51,36.32,28.94,36.32Z"/><path class="u" d="M31.05,36.32h0c0.43,0,.78.21,0.78,0.14a1.12,1.12,0,0,0-.78-0.6h0a1.12,1.12,0,0,0-.78.6C30.27,36.53,30.62,36.32,31.05,36.32Z"/><ellipse class="v" cx="23.85" cy="32.82" rx="5.03" ry="2.31"/><ellipse class="w" cx="36.15" cy="32.82" rx="5.03" ry="2.31"/><circle class="e" cx="23.91" cy="30.27" r="0.94"/><circle class="e" cx="35.79" cy="30.27" r="0.94"/><path class="l" d="M22.64,26.26a7.23,7.23,0,0,1,2.65-.12,3.27,3.27,0,0,0-2.67-.49,3.31,3.31,0,0,0-2.11,1.44A7.43,7.43,0,0,1,22.64,26.26Z"/><path class="l" d="M37.06,27.1A7.21,7.21,0,0,0,34.41,27a3.27,3.27,0,0,1,2.67-.49,3.31,3.31,0,0,1,2.11,1.44A7.43,7.43,0,0,0,37.06,27.1Z"/><path class="x" d="M22.64,26.26a7.23,7.23,0,0,1,2.65-.12,3.27,3.27,0,0,0-2.67-.49,3.31,3.31,0,0,0-2.11,1.44A7.43,7.43,0,0,1,22.64,26.26Z"/><path class="y" d="M37.06,27.1A7.21,7.21,0,0,0,34.41,27a3.27,3.27,0,0,1,2.67-.49,3.31,3.31,0,0,1,2.11,1.44A7.43,7.43,0,0,0,37.06,27.1Z"/><path class="l" d="M43.4,11.15C41.92,8.91,30,8.08,30,8.08s-11.92.83-13.4,3.08-2.84,8.52-1.92,11.79C16.15,28.21,16,24.23,16,24.23c1.6-3.85-1.37-7.69,3.44-9,7.37-1.67,10.6-.58,10.6-0.58s3.23-1.09,10.6.58c4.81,1.28,1.83,5.13,3.44,9,0,0-.19,4,1.28-1.28C46.24,19.67,44.87,13.4,43.4,11.15Z"/><path class="z" d="M43.4,11.15C41.92,8.91,30,8.08,30,8.08s-11.92.83-13.4,3.08-2.84,8.52-1.92,11.79C16.15,28.21,16,24.23,16,24.23c1.6-3.85-1.37-7.69,3.44-9,7.37-1.67,10.6-.58,10.6-0.58s3.23-1.09,10.6.58c4.81,1.28,1.83,5.13,3.44,9,0,0-.19,4,1.28-1.28C46.24,19.67,44.87,13.4,43.4,11.15Z"/><path class="aa" d="M30,34.46h0c1.19,0,2.16.32,2.16,0.21A4.1,4.1,0,0,0,30,32.89v0a4.1,4.1,0,0,0-2.16,1.79C27.85,34.78,28.82,34.46,30,34.46Z"/><path class="r" d="M30,56.32c5.63,0,10.19-2.94,10.19-5.49,0,0,0,0,0-.06h-1s0,0,0,.06c0,2.55-4.13,4.62-9.23,4.62s-9.23-2.07-9.23-4.62c0,0,0,0,0-.06h-1s0,0,0,.06C19.81,53.38,24.37,56.32,30,56.32Z"/><path class="ab" d="M41.35,50.77H39.22s0,0,0,.06c0,2.55-4.13,4.62-9.23,4.62s-9.23-2.07-9.23-4.62c0,0,0,0,0-.06H18.65a7.11,7.11,0,0,0-7.12,7.12v6.73H48.46V57.88A7.11,7.11,0,0,0,41.35,50.77Z"/><circle class="ac" cx="24.96" cy="32.86" r="0.32"/><circle class="ac" cx="23.87" cy="34.08" r="0.32"/><circle class="ac" cx="21.9" cy="33.3" r="0.27"/><circle class="ac" cx="20.49" cy="33.04" r="0.21"/><circle class="ac" cx="23.23" cy="32.93" r="0.32"/><circle class="ac" cx="34.73" cy="32.86" r="0.32"/><circle class="ac" cx="35.82" cy="34.08" r="0.32"/><circle class="ac" cx="37.79" cy="33.3" r="0.27"/><circle class="ac" cx="39.2" cy="33.04" r="0.21"/><circle class="ac" cx="36.46" cy="32.93" r="0.32"/><path class="ad" d="M30,50.49h0c-1.19,0-2.16-.32-2.16-0.21a4.1,4.1,0,0,0,2.16,1.79v0a4.1,4.1,0,0,0,2.16-1.79C32.12,50.17,31.15,50.49,30,50.49Z"/></g></g></svg>