<svg xmlns="http://www.w3.org/2000/svg" xmlns:xlink="http://www.w3.org/1999/xlink" width="60" height="60" viewBox="0 0 60 60"><defs><style>.a{fill:none;}.b{isolation:isolate;}.c{clip-path:url(#a);}.d{fill:url(#b);}.e{fill:#71858a;}.f{fill:#1d1d1b;}.g{fill:#f3ddc6;}.ac,.ae,.af,.ag,.ai,.h,.l,.m,.n,.p,.r,.t,.u,.v,.w,.x,.y,.z{mix-blend-mode:multiply;}.h{fill:url(#c);}.i{fill:#e73e51;}.j{fill:url(#d);}.k{fill:#ee7f7a;}.ab,.ac,.ae,.af,.ag,.ai,.l,.m,.n,.p,.u{opacity:0.5;}.l{fill:url(#e);}.m{fill:url(#f);}.n{fill:url(#h);}.o{fill:url(#i);}.p{fill:url(#j);}.q{fill:url(#k);}.r{fill:url(#l);}.ab,.s{fill:#fff;}.t{fill:url(#m);}.u{fill:url(#n);}.w{fill:url(#o);}.x{fill:url(#p);}.y{fill:url(#q);}.z{fill:url(#r);}.aa{fill:#9c9b9b;}.ac{fill:url(#s);}.ad{mix-blend-mode:color-burn;}.ae{fill:url(#t);}.af{fill:url(#u);}.ag{fill:url(#v);}.ah{fill:#2bbbe7;}.ai{fill:url(#w);}</style><clipPath id="a"><circle class="a" cx="30" cy="30" r="30"/></clipPath><linearGradient id="b" x1="40.92" y1="32.31" x2="45.53" y2="32.31" gradientUnits="userSpaceOnUse"><stop offset="0" stop-color="#fff" stop-opacity="0"/><stop offset="1" stop-color="#f0c7bb"/></linearGradient><linearGradient id="c" x1="30" y1="60" x2="30" y2="41.54" gradientUnits="userSpaceOnUse"><stop offset="0.41" stop-color="#fff" stop-opacity="0"/><stop offset="0.43" stop-color="#fdf8f7" stop-opacity="0.12"/><stop offset="0.49" stop-color="#faede9" stop-opacity="0.32"/><stop offset="0.55" stop-color="#f7e3dd" stop-opacity="0.5"/><stop offset="0.61" stop-color="#f5dad2" stop-opacity="0.66"/><stop offset="0.68" stop-color="#f3d3ca" stop-opacity="0.78"/><stop offset="0.74" stop-color="#f2cec3" stop-opacity="0.88"/><stop offset="0.82" stop-color="#f1cabf" stop-opacity="0.95"/><stop offset="0.9" stop-color="#f0c8bc" stop-opacity="0.99"/><stop offset="1" stop-color="#f0c7bb"/></linearGradient><linearGradient id="d" x1="40.92" y1="32.31" x2="45.53" y2="32.31" gradientUnits="userSpaceOnUse"><stop offset="0" stop-color="#f0c7bb"/><stop offset="0.18" stop-color="#f0c8bc" stop-opacity="0.99"/><stop offset="0.31" stop-color="#f1cabf" stop-opacity="0.95"/><stop offset="0.43" stop-color="#f2cec3" stop-opacity="0.88"/><stop offset="0.54" stop-color="#f3d3ca" stop-opacity="0.78"/><stop offset="0.65" stop-color="#f5dad2" stop-opacity="0.66"/><stop offset="0.76" stop-color="#f7e3dd" stop-opacity="0.5"/><stop offset="0.86" stop-color="#faede9" stop-opacity="0.32"/><stop offset="0.95" stop-color="#fdf8f7" stop-opacity="0.12"/><stop offset="1" stop-color="#fff" stop-opacity="0"/></linearGradient><linearGradient id="e" x1="13.56" y1="28.47" x2="46.44" y2="28.47" gradientUnits="userSpaceOnUse"><stop offset="0" stop-color="#1d1d1b" stop-opacity="0"/><stop offset="0.4" stop-color="#1d1d1b" stop-opacity="0.11"/><stop offset="0.72" stop-color="#1d1d1b" stop-opacity="0.45"/><stop offset="1" stop-color="#1d1d1b"/></linearGradient><linearGradient id="f" x1="13.23" y1="22.2" x2="18.42" y2="22.2" xlink:href="#e"/><linearGradient id="h" x1="42.73" y1="25.44" x2="45.04" y2="25.44" xlink:href="#e"/><linearGradient id="i" x1="14.17" y1="32.31" x2="18.78" y2="32.31" gradientUnits="userSpaceOnUse"><stop offset="0" stop-color="#f0c7bb"/><stop offset="1" stop-color="#fff" stop-opacity="0"/></linearGradient><linearGradient id="j" x1="14.96" y1="27.9" x2="17.26" y2="27.9" xlink:href="#e"/><linearGradient id="k" x1="15.93" y1="27.17" x2="43.92" y2="27.17" xlink:href="#b"/><linearGradient id="l" x1="29.98" y1="41.53" x2="29.98" y2="39.29" gradientUnits="userSpaceOnUse"><stop offset="0" stop-color="#f0c7bb"/><stop offset="0.18" stop-color="#f2d0c6" stop-opacity="0.84"/><stop offset="0.58" stop-color="#f8e6e1" stop-opacity="0.45"/><stop offset="1" stop-color="#fff" stop-opacity="0"/></linearGradient><linearGradient id="m" x1="30.02" y1="42.43" x2="30.02" y2="41.81" xlink:href="#d"/><linearGradient id="n" x1="-205.95" y1="-129.68" x2="-205.95" y2="-131.49" gradientTransform="translate(-175.94 -96.8) rotate(180)" gradientUnits="userSpaceOnUse"><stop offset="0" stop-color="#f0c7bb"/><stop offset="0.11" stop-color="#f1cbc0" stop-opacity="0.93"/><stop offset="0.32" stop-color="#f4d6cd" stop-opacity="0.73"/><stop offset="0.63" stop-color="#f9e8e3" stop-opacity="0.42"/><stop offset="1" stop-color="#fff" stop-opacity="0"/></linearGradient><linearGradient id="o" x1="-204.88" y1="-118.81" x2="-204.88" y2="-119.43" gradientTransform="translate(-175.94 -82.95) rotate(180)" xlink:href="#d"/><linearGradient id="p" x1="-207" y1="-118.81" x2="-207" y2="-119.43" gradientTransform="translate(-175.94 -82.95) rotate(180)" xlink:href="#d"/><radialGradient id="q" cx="-63.27" cy="31.31" r="1.12" gradientTransform="translate(306.86 -31.41) scale(4.47 2.05)" xlink:href="#l"/><radialGradient id="r" cx="-60.52" cy="31.31" r="1.12" gradientTransform="translate(306.86 -31.41) scale(4.47 2.05)" xlink:href="#l"/><linearGradient id="s" x1="17.25" y1="13.29" x2="45.37" y2="13.29" xlink:href="#e"/><linearGradient id="t" x1="17.22" y1="16.44" x2="34.04" y2="16.44" xlink:href="#e"/><linearGradient id="u" x1="-50.86" y1="-7.64" x2="-50.86" y2="-10.13" gradientTransform="translate(81 56.33)" xlink:href="#n"/><linearGradient id="v" x1="-50.92" y1="-4.26" x2="-50.92" y2="-6.07" gradientTransform="translate(81 56.33)" xlink:href="#n"/><linearGradient id="w" x1="11.54" y1="57.69" x2="48.46" y2="57.69" xlink:href="#e"/></defs><title>avatar9</title><g class="b"><g class="c"><path class="d" d="M40.92,32.31c0,2.55.16,4.62,1.44,4.62s3.18-2.07,3.18-4.62-0.6-4.62-1.87-4.62S40.92,29.76,40.92,32.31Z"/><circle class="e" cx="30" cy="30" r="30"/><polygon class="f" points="40.38 50.77 35.48 50.77 24.52 50.77 19.61 50.77 16.15 60 24.52 60 35.48 60 43.85 60 40.38 50.77"/><path class="g" d="M34.62,47.08V41.54H25.38v5.54c-0.53,2.26-2.55,5-9.23,5,0,0,4.62,7.95,13.85,7.95s13.85-7.95,13.85-7.95C37.17,52.05,35.15,49.34,34.62,47.08Z"/><path class="h" d="M34.62,47.08V41.54H25.38v5.54c-0.53,2.26-2.55,5-9.23,5,0,0,4.62,7.95,13.85,7.95s13.85-7.95,13.85-7.95C37.17,52.05,35.15,49.34,34.62,47.08Z"/><path class="i" d="M41.35,50.77H39.22s0,0,0,.06c0,2.55-4.13,4.62-9.23,4.62s-9.23-2.07-9.23-4.62c0,0,0,0,0-.06H18.65a7.11,7.11,0,0,0-7.12,7.12v6.73H48.46V57.88A7.11,7.11,0,0,0,41.35,50.77Z"/><path class="j" d="M40.92,32.31c0,2.55.16,4.62,1.44,4.62s3.18-2.07,3.18-4.62-0.6-4.62-1.87-4.62S40.92,29.76,40.92,32.31Z"/><path class="k" d="M46.44,26.54c0,9.84-6.88,17.82-16.44,17.82s-16.44-8-16.44-17.82c0-18,8-13.46,16.44-13.46C32.58,13.08,46.44,8.55,46.44,26.54Z"/><path class="l" d="M46.44,26.54c0,9.84-6.88,17.82-16.44,17.82s-16.44-8-16.44-17.82c0-18,8-13.46,16.44-13.46C32.58,13.08,46.44,8.55,46.44,26.54Z"/><path class="k" d="M18.09,20.27c-0.7,3.43-2.29,10.81-3.53,10.55s-1.69-8-1-11.48,2.29-6,3.53-5.75S18.79,16.83,18.09,20.27Z"/><path class="m" d="M18.09,20.27c-0.7,3.43-2.29,10.81-3.53,10.55s-1.69-8-1-11.48,2.29-6,3.53-5.75S18.79,16.83,18.09,20.27Z"/><path class="g" d="M18.78,32.31c0,2.55-.16,4.62-1.44,4.62s-3.18-2.07-3.18-4.62,0.6-4.62,1.87-4.62S18.78,29.76,18.78,32.31Z"/><path class="g" d="M40.92,32.31c0,2.55.16,4.62,1.44,4.62s3.18-2.07,3.18-4.62-0.6-4.62-1.87-4.62S40.92,29.76,40.92,32.31Z"/><path class="d" d="M40.92,32.31c0,2.55.16,4.62,1.44,4.62s3.18-2.07,3.18-4.62-0.6-4.62-1.87-4.62S40.92,29.76,40.92,32.31Z"/><path class="k" d="M42.73,36C44,36,45,31.28,45,25.45s-1-10.56-2.31-10.56"/><path class="n" d="M42.73,36C44,36,45,31.28,45,25.45s-1-10.56-2.31-10.56"/><path class="o" d="M18.78,32.31c0,2.55-.16,4.62-1.44,4.62s-3.18-2.07-3.18-4.62,0.6-4.62,1.87-4.62S18.78,29.76,18.78,32.31Z"/><path class="k" d="M17.26,36C16,36,15,32.38,15,27.9s1-8.1,2.31-8.1"/><path class="p" d="M17.26,36C16,36,15,32.38,15,27.9s1-8.1,2.31-8.1"/><path class="g" d="M43.85,30C43.85,43.14,33,46.15,30,46.15S16.15,43.14,16.15,30C16.15,20.06,13,8.18,30,8.18,45.79,8.18,43.85,19,43.85,30Z"/><path class="q" d="M43.85,30C43.85,43.14,33,46.15,30,46.15S16.15,43.14,16.15,30C16.15,20.06,13,8.18,30,8.18,45.79,8.18,43.85,19,43.85,30Z"/><path class="r" d="M30,39.85h0c-3.61,0-6.53-.76-6.53-0.51,0,0.75,3.41,2.19,6.53,2.19h0c3.12,0,6.53-1.45,6.53-2.19C36.54,39.09,33.61,39.85,30,39.85Z"/><path class="s" d="M30,40.67h0c-2.55,0-4.62-.4-4.62-0.27,0,0.39,2.07,1.14,4.62,1.14h0c2.55,0,4.62-.75,4.62-1.14C34.65,40.27,32.58,40.67,30,40.67Z"/><path class="t" d="M30,42h0c-1.19,0-2.16-.21-2.16-0.14a4.39,4.39,0,0,0,2.16.6h0a4.39,4.39,0,0,0,2.16-.6C32.18,41.76,31.21,42,30,42Z"/><path class="u" d="M30,34.46h0c1.19,0,2.16.32,2.16,0.21A4.1,4.1,0,0,0,30,32.89v0a4.1,4.1,0,0,0-2.16,1.79C27.85,34.78,28.82,34.46,30,34.46Z"/><g class="v"><path class="w" d="M28.94,36.32h0c0.43,0,.78.21,0.78,0.14a1.12,1.12,0,0,0-.78-0.6h0a1.12,1.12,0,0,0-.78.6C28.16,36.53,28.51,36.32,28.94,36.32Z"/><path class="x" d="M31.05,36.32h0c0.43,0,.78.21,0.78,0.14a1.12,1.12,0,0,0-.78-0.6h0a1.12,1.12,0,0,0-.78.6C30.27,36.53,30.62,36.32,31.05,36.32Z"/></g><ellipse class="y" cx="23.85" cy="32.82" rx="5.03" ry="2.31"/><ellipse class="z" cx="36.15" cy="32.82" rx="5.03" ry="2.31"/><circle class="f" cx="23.91" cy="30.27" r="0.94"/><circle class="f" cx="35.79" cy="30.27" r="0.94"/><path class="k" d="M22.64,26.26a7.22,7.22,0,0,1,2.65-.12,3.27,3.27,0,0,0-2.67-.49,3.31,3.31,0,0,0-2.11,1.44A7.44,7.44,0,0,1,22.64,26.26Z"/><path class="k" d="M37.06,27.1A7.23,7.23,0,0,0,34.41,27a3.48,3.48,0,0,1,4.79,1A7.43,7.43,0,0,0,37.06,27.1Z"/><path class="f" d="M25.47,35.13h-2.9a3.68,3.68,0,0,1-3.68-3.68v-2a3.68,3.68,0,0,1,3.68-3.68h2.9a3.68,3.68,0,0,1,3.68,3.68v2A3.68,3.68,0,0,1,25.47,35.13Zm-2.9-7.82a2.14,2.14,0,0,0-2.14,2.14v2a2.14,2.14,0,0,0,2.14,2.14h2.9a2.14,2.14,0,0,0,2.14-2.14v-2a2.14,2.14,0,0,0-2.14-2.14h-2.9Z"/><path class="f" d="M37.43,35.13h-2.9a3.68,3.68,0,0,1-3.68-3.68v-2a3.68,3.68,0,0,1,3.68-3.68h2.9a3.68,3.68,0,0,1,3.68,3.68v2A3.68,3.68,0,0,1,37.43,35.13Zm-2.9-7.82a2.14,2.14,0,0,0-2.14,2.14v2a2.14,2.14,0,0,0,2.14,2.14h2.9a2.14,2.14,0,0,0,2.14-2.14v-2a2.14,2.14,0,0,0-2.14-2.14h-2.9Z"/><path class="f" d="M32.38,31.38H30.84a0.84,0.84,0,1,0-1.68,0H27.62A2.38,2.38,0,1,1,32.38,31.38Z"/><g class="v"><path class="aa" d="M22.57,27.31a2.14,2.14,0,0,0-2.14,2.14v2a2.14,2.14,0,0,0,2.14,2.14h2.9a2.14,2.14,0,0,0,2.14-2.14v-2a2.14,2.14,0,0,0-2.14-2.14h-2.9Z"/></g><g class="v"><path class="aa" d="M34.53,27.31a2.14,2.14,0,0,0-2.14,2.14v2a2.14,2.14,0,0,0,2.14,2.14h2.9a2.14,2.14,0,0,0,2.14-2.14v-2a2.14,2.14,0,0,0-2.14-2.14h-2.9Z"/></g><path class="ab" d="M24.45,29.27a1.11,1.11,0,0,1-1.11,1.11H22.39a1.11,1.11,0,0,1-1.11-1.11h0a1.11,1.11,0,0,1,1.11-1.11h0.94a1.11,1.11,0,0,1,1.11,1.11h0Z"/><path class="ab" d="M36.41,29.27a1.11,1.11,0,0,1-1.11,1.11H34.36a1.11,1.11,0,0,1-1.11-1.11h0a1.11,1.11,0,0,1,1.11-1.11H35.3a1.11,1.11,0,0,1,1.11,1.11h0Z"/><path class="k" d="M18.26,11.3c6.42-5.77,15.82-4.54,15.82-4.54s-8.3-5.08-15.82,4.54"/><path class="k" d="M44.67,18.33c-7.53,4.27-14.8-2.56-19.89-4.27s-7.53-.26-7.53-0.26c0-.22,1.37-7.94,13-6.83C42.36,8.14,41,13.16,45.37,17.65"/><path class="ac" d="M44.67,18.33c-7.53,4.27-14.8-2.56-19.89-4.27s-7.53-.26-7.53-0.26c0-.22,1.37-7.94,13-6.83C42.36,8.14,41,13.16,45.37,17.65"/><path class="k" d="M23.57,14.19c-3.58-1.38-5.67-.7-6.34-0.39a6.56,6.56,0,0,1,3.93.77c3.32,1.6,6.28,4.27,12.88,4.95C30.06,18.49,26.42,15.28,23.57,14.19Z"/><g class="ad"><path class="ae" d="M23.57,14.19c-3.58-1.38-5.67-.7-6.34-0.39a6.56,6.56,0,0,1,3.93.77c3.32,1.6,6.28,4.27,12.88,4.95C30.06,18.49,26.42,15.28,23.57,14.19Z"/></g><rect class="f" x="15.71" y="29.55" width="3.91" height="1.54"/><rect class="f" x="40.38" y="29.55" width="3.91" height="1.54"/><path class="af" d="M30.15,46.52h0c-1.19,0-2.16-.44-2.16-0.3,0,0.43,1.51,2.46,2.16,2.46v0c0.65,0,2.16-2,2.16-2.46C32.31,46.08,31.34,46.52,30.15,46.52Z"/><path class="ag" d="M30.09,50.49h0c-1.19,0-2.16-.32-2.16-0.21a4.1,4.1,0,0,0,2.16,1.79v0a4.1,4.1,0,0,0,2.16-1.79C32.24,50.17,31.28,50.49,30.09,50.49Z"/><path class="ah" d="M13.85,52.65v12h4.62V50.78A7.08,7.08,0,0,0,13.85,52.65Z"/><path class="ah" d="M23.08,53.88V64.62h4.62V55.29A12.81,12.81,0,0,1,23.08,53.88Z"/><path class="ah" d="M32.31,55.29v9.32h4.62V53.88A12.81,12.81,0,0,1,32.31,55.29Z"/><path class="ah" d="M41.54,50.78V64.62h4.62v-12A7.08,7.08,0,0,0,41.54,50.78Z"/><path class="s" d="M30,56.32c5.63,0,10.19-2.94,10.19-5.49,0,0,0,0,0-.06h-1s0,0,0,.06c0,2.55-4.13,4.62-9.23,4.62s-9.23-2.07-9.23-4.62c0,0,0,0,0-.06h-1s0,0,0,.06C19.81,53.38,24.37,56.32,30,56.32Z"/><path class="ai" d="M41.35,50.77H39.22s0,0,0,.06c0,2.55-4.13,4.62-9.23,4.62s-9.23-2.07-9.23-4.62c0,0,0,0,0-.06H18.65a7.11,7.11,0,0,0-7.12,7.12v6.73H48.46V57.88A7.11,7.11,0,0,0,41.35,50.77Z"/><path class="s" d="M30,56.32c5.63,0,10.19-2.94,10.19-5.49,0,0,0,0,0-.06h-1s0,0,0,.06c0,2.55-4.13,4.62-9.23,4.62s-9.23-2.07-9.23-4.62c0,0,0,0,0-.06h-1s0,0,0,.06C19.81,53.38,24.37,56.32,30,56.32Z"/></g></g></svg>