<svg xmlns="http://www.w3.org/2000/svg" xmlns:xlink="http://www.w3.org/1999/xlink" width="60" height="60" viewBox="0 0 60 60"><defs><style>.a{fill:#71858a;}.b{isolation:isolate;}.c{clip-path:url(#a);}.d{fill:#ee7f7a;}.aa,.ab,.ac,.e,.k,.n,.o,.s,.t,.u{opacity:0.5;}.aa,.ab,.ac,.e,.i,.k,.n,.o,.q,.r,.s,.t,.u,.v,.w,.x,.y{mix-blend-mode:multiply;}.e{fill:url(#b);}.f{fill:#fff;}.g{fill:#1d1d1b;}.h{fill:#f3ddc6;}.i{fill:url(#c);}.j{fill:#2bbbe7;}.k{fill:url(#d);}.l{fill:url(#e);}.m{fill:url(#f);}.n{fill:url(#g);}.o{fill:url(#h);}.p{fill:url(#i);}.q{fill:url(#j);}.r{fill:url(#k);}.s{fill:url(#l);}.t{fill:url(#m);}.u{fill:url(#n);}.v{fill:url(#o);}.w{fill:url(#p);}.x{fill:url(#q);}.y{fill:url(#r);}.z{fill:#e73e51;}.aa{fill:url(#s);}.ab{fill:url(#t);}.ac{fill:url(#u);}</style><clipPath id="a"><circle class="a" cx="30" cy="30" r="30"/></clipPath><linearGradient id="b" x1="12.31" y1="28.41" x2="47.57" y2="28.41" gradientUnits="userSpaceOnUse"><stop offset="0" stop-color="#1d1d1b" stop-opacity="0"/><stop offset="0.4" stop-color="#1d1d1b" stop-opacity="0.11"/><stop offset="0.72" stop-color="#1d1d1b" stop-opacity="0.45"/><stop offset="1" stop-color="#1d1d1b"/></linearGradient><linearGradient id="c" x1="30" y1="60" x2="30" y2="41.54" gradientUnits="userSpaceOnUse"><stop offset="0.41" stop-color="#fff" stop-opacity="0"/><stop offset="0.43" stop-color="#fdf8f7" stop-opacity="0.12"/><stop offset="0.49" stop-color="#faede9" stop-opacity="0.32"/><stop offset="0.55" stop-color="#f7e3dd" stop-opacity="0.5"/><stop offset="0.61" stop-color="#f5dad2" stop-opacity="0.66"/><stop offset="0.68" stop-color="#f3d3ca" stop-opacity="0.78"/><stop offset="0.74" stop-color="#f2cec3" stop-opacity="0.88"/><stop offset="0.82" stop-color="#f1cabf" stop-opacity="0.95"/><stop offset="0.9" stop-color="#f0c8bc" stop-opacity="0.99"/><stop offset="1" stop-color="#f0c7bb"/></linearGradient><linearGradient id="d" x1="11.54" y1="57.69" x2="48.46" y2="57.69" xlink:href="#b"/><linearGradient id="e" x1="40.92" y1="32.31" x2="45.53" y2="32.31" gradientUnits="userSpaceOnUse"><stop offset="0" stop-color="#fff" stop-opacity="0"/><stop offset="1" stop-color="#f0c7bb"/></linearGradient><linearGradient id="f" x1="14.17" y1="32.31" x2="18.78" y2="32.31" gradientUnits="userSpaceOnUse"><stop offset="0" stop-color="#f0c7bb"/><stop offset="1" stop-color="#fff" stop-opacity="0"/></linearGradient><linearGradient id="g" x1="40.99" y1="30.89" x2="45.04" y2="30.89" xlink:href="#b"/><linearGradient id="h" x1="14.96" y1="30.89" x2="19.01" y2="30.89" xlink:href="#b"/><linearGradient id="i" x1="15.93" y1="27.17" x2="43.92" y2="27.17" xlink:href="#e"/><linearGradient id="j" x1="29.98" y1="41.53" x2="29.98" y2="39.29" gradientUnits="userSpaceOnUse"><stop offset="0" stop-color="#f0c7bb"/><stop offset="0.18" stop-color="#f2d0c6" stop-opacity="0.84"/><stop offset="0.58" stop-color="#f8e6e1" stop-opacity="0.45"/><stop offset="1" stop-color="#fff" stop-opacity="0"/></linearGradient><linearGradient id="k" x1="30.02" y1="42.43" x2="30.02" y2="41.81" gradientUnits="userSpaceOnUse"><stop offset="0" stop-color="#f0c7bb"/><stop offset="0.18" stop-color="#f0c8bc" stop-opacity="0.99"/><stop offset="0.31" stop-color="#f1cabf" stop-opacity="0.95"/><stop offset="0.43" stop-color="#f2cec3" stop-opacity="0.88"/><stop offset="0.54" stop-color="#f3d3ca" stop-opacity="0.78"/><stop offset="0.65" stop-color="#f5dad2" stop-opacity="0.66"/><stop offset="0.76" stop-color="#f7e3dd" stop-opacity="0.5"/><stop offset="0.86" stop-color="#faede9" stop-opacity="0.32"/><stop offset="0.95" stop-color="#fdf8f7" stop-opacity="0.12"/><stop offset="1" stop-color="#fff" stop-opacity="0"/></linearGradient><linearGradient id="l" x1="-205.95" y1="-129.68" x2="-205.95" y2="-131.49" gradientTransform="translate(-175.94 -96.8) rotate(180)" gradientUnits="userSpaceOnUse"><stop offset="0" stop-color="#f0c7bb"/><stop offset="0.11" stop-color="#f1cbc0" stop-opacity="0.93"/><stop offset="0.32" stop-color="#f4d6cd" stop-opacity="0.73"/><stop offset="0.63" stop-color="#f9e8e3" stop-opacity="0.42"/><stop offset="1" stop-color="#fff" stop-opacity="0"/></linearGradient><linearGradient id="m" x1="-50.98" y1="-8.36" x2="-50.98" y2="-10.17" gradientTransform="translate(81 56.33)" xlink:href="#l"/><linearGradient id="n" x1="-50.98" y1="-3.75" x2="-50.98" y2="-5.56" gradientTransform="translate(81 56.33)" xlink:href="#l"/><linearGradient id="o" x1="-204.88" y1="-118.81" x2="-204.88" y2="-119.43" gradientTransform="translate(-175.94 -82.95) rotate(180)" xlink:href="#k"/><linearGradient id="p" x1="-207" y1="-118.81" x2="-207" y2="-119.43" gradientTransform="translate(-175.94 -82.95) rotate(180)" xlink:href="#k"/><radialGradient id="q" cx="-63.38" cy="31.38" r="1.12" gradientTransform="translate(307.35 -31.54) scale(4.47 2.05)" xlink:href="#j"/><radialGradient id="r" cx="-60.63" cy="31.38" r="1.12" gradientTransform="translate(307.35 -31.54) scale(4.47 2.05)" xlink:href="#j"/><linearGradient id="s" x1="30.73" y1="17.41" x2="39.96" y2="17.41" xlink:href="#b"/><linearGradient id="t" x1="14.26" y1="17.96" x2="31.87" y2="17.96" xlink:href="#b"/><linearGradient id="u" x1="29.88" y1="17.97" x2="45.86" y2="17.97" xlink:href="#b"/></defs><title>avatar6</title><g class="b"><circle class="a" cx="30" cy="30" r="30"/><g class="c"><circle class="a" cx="30" cy="30" r="30"/><path class="d" d="M47.46,34.83c0.09-2.29-.3-5.26-0.3-9.07,0-9.13-7-17.84-17.15-17.84S12.85,16.63,12.85,25.77c0,5.49-.86,9.15-0.4,11.55,0.19,3.93,2,7.21,4.48,8.43a18.05,18.05,0,0,1-1.81-5.35l0,0c0.57,3.12,2.19,5.62,4.28,6.65a17.38,17.38,0,0,1-1.38-3.51,8.08,8.08,0,0,0,3.69,4.52,17.44,17.44,0,0,1-1.42-3.65,7.48,7.48,0,0,0,3.17,3.35,16.87,16.87,0,0,1-1-2.29A6.87,6.87,0,0,0,25,47.78l-0.13-.26a6.33,6.33,0,0,0,1.81,1.38,17.06,17.06,0,0,1-1.15-2.75h8.86a17.06,17.06,0,0,1-1.15,2.75,6.33,6.33,0,0,0,1.81-1.38L35,47.78a6.87,6.87,0,0,0,2.54-2.29,16.87,16.87,0,0,1-1,2.29,7.48,7.48,0,0,0,3.17-3.35,17.44,17.44,0,0,1-1.42,3.65,8.08,8.08,0,0,0,3.69-4.52,17.38,17.38,0,0,1-1.38,3.51c2.23-1.11,3.93-3.89,4.38-7.32l0,0a18.31,18.31,0,0,1-1.91,6c2.62-1.3,4.5-4.89,4.5-9.13A14,14,0,0,0,47.46,34.83Z"/><path class="e" d="M47.46,34.83c0.09-2.29-.3-5.26-0.3-9.07,0-9.13-7-17.84-17.15-17.84S12.85,16.63,12.85,25.77c0,5.49-.86,9.15-0.4,11.55,0.19,3.93,2,7.21,4.48,8.43a18.05,18.05,0,0,1-1.81-5.35l0,0c0.57,3.12,2.19,5.62,4.28,6.65a17.38,17.38,0,0,1-1.38-3.51,8.08,8.08,0,0,0,3.69,4.52,17.44,17.44,0,0,1-1.42-3.65,7.48,7.48,0,0,0,3.17,3.35,16.87,16.87,0,0,1-1-2.29A6.87,6.87,0,0,0,25,47.78l-0.13-.26a6.33,6.33,0,0,0,1.81,1.38,17.06,17.06,0,0,1-1.15-2.75h8.86a17.06,17.06,0,0,1-1.15,2.75,6.33,6.33,0,0,0,1.81-1.38L35,47.78a6.87,6.87,0,0,0,2.54-2.29,16.87,16.87,0,0,1-1,2.29,7.48,7.48,0,0,0,3.17-3.35,17.44,17.44,0,0,1-1.42,3.65,8.08,8.08,0,0,0,3.69-4.52,17.38,17.38,0,0,1-1.38,3.51c2.23-1.11,3.93-3.89,4.38-7.32l0,0a18.31,18.31,0,0,1-1.91,6c2.62-1.3,4.5-4.89,4.5-9.13A14,14,0,0,0,47.46,34.83Z"/><circle class="f" cx="16.15" cy="36.24" r="1.15"/><circle class="f" cx="43.85" cy="36.24" r="1.15"/><polygon class="g" points="40.38 50.77 35.48 50.77 24.52 50.77 19.61 50.77 16.15 60 24.52 60 35.48 60 43.85 60 40.38 50.77"/><path class="h" d="M34.62,47.08V41.54H25.38v5.54c-0.53,2.26-2.55,5-9.23,5,0,0,4.62,7.95,13.85,7.95s13.85-7.95,13.85-7.95C37.17,52.05,35.15,49.34,34.62,47.08Z"/><path class="i" d="M34.62,47.08V41.54H25.38v5.54c-0.53,2.26-2.55,5-9.23,5,0,0,4.62,7.95,13.85,7.95s13.85-7.95,13.85-7.95C37.17,52.05,35.15,49.34,34.62,47.08Z"/><path class="j" d="M41.35,50.77H39.23L30,60l-9.23-9.23H18.65a7.12,7.12,0,0,0-7.12,7.12v6.73H48.46V57.88A7.12,7.12,0,0,0,41.35,50.77Z"/><path class="k" d="M41.35,50.77H39.23L30,60l-9.23-9.23H18.65a7.12,7.12,0,0,0-7.12,7.12v6.73H48.46V57.88A7.12,7.12,0,0,0,41.35,50.77Z"/><path class="h" d="M18.78,32.31c0,2.55-.16,4.62-1.44,4.62s-3.18-2.07-3.18-4.62,0.6-4.62,1.87-4.62S18.78,29.76,18.78,32.31Z"/><path class="h" d="M40.92,32.31c0,2.55.16,4.62,1.44,4.62s3.18-2.07,3.18-4.62-0.6-4.62-1.87-4.62S40.92,29.76,40.92,32.31Z"/><path class="l" d="M40.92,32.31c0,2.55.16,4.62,1.44,4.62s3.18-2.07,3.18-4.62-0.6-4.62-1.87-4.62S40.92,29.76,40.92,32.31Z"/><path class="d" d="M41,44.16c1.27,0,4.05-5.94,4.05-13.27s-1-13.27-2.31-13.27"/><path class="m" d="M18.78,32.31c0,2.55-.16,4.62-1.44,4.62s-3.18-2.07-3.18-4.62,0.6-4.62,1.87-4.62S18.78,29.76,18.78,32.31Z"/><path class="d" d="M19,44.16c-1.27,0-4.05-5.94-4.05-13.27s1-13.27,2.31-13.27"/><path class="n" d="M41,44.16c1.27,0,4.05-5.94,4.05-13.27s-1-13.27-2.31-13.27"/><path class="o" d="M19,44.16c-1.27,0-4.05-5.94-4.05-13.27s1-13.27,2.31-13.27"/><path class="h" d="M43.85,30c0,12-12,16.15-13.85,16.15S16.15,42,16.15,30C16.15,20.06,13,8.18,30,8.18,45.79,8.18,43.85,19,43.85,30Z"/><path class="p" d="M43.85,30c0,12-12,16.15-13.85,16.15S16.15,42,16.15,30C16.15,20.06,13,8.18,30,8.18,45.79,8.18,43.85,19,43.85,30Z"/><path class="q" d="M30,39.85h0c-3.61,0-6.53-.76-6.53-0.51,0,0.75,3.41,2.19,6.53,2.19h0c3.12,0,6.53-1.45,6.53-2.19C36.54,39.09,33.61,39.85,30,39.85Z"/><path class="f" d="M30,40.67h0c-2.55,0-4.62-.4-4.62-0.27,0,0.39,2.07,1.14,4.62,1.14h0c2.55,0,4.62-.75,4.62-1.14C34.65,40.27,32.58,40.67,30,40.67Z"/><path class="r" d="M30,42h0c-1.19,0-2.16-.21-2.16-0.14a4.39,4.39,0,0,0,2.16.6h0a4.39,4.39,0,0,0,2.16-.6C32.18,41.76,31.21,42,30,42Z"/><path class="s" d="M30,34.46h0c1.19,0,2.16.32,2.16,0.21A4.1,4.1,0,0,0,30,32.89v0a4.1,4.1,0,0,0-2.16,1.79C27.85,34.78,28.82,34.46,30,34.46Z"/><path class="t" d="M30,46.39h0c-1.19,0-2.16-.32-2.16-0.21A4.1,4.1,0,0,0,30,48v0a4.1,4.1,0,0,0,2.16-1.79C32.18,46.07,31.21,46.39,30,46.39Z"/><path class="u" d="M30,51h0c-1.19,0-2.16-.32-2.16-0.21A4.1,4.1,0,0,0,30,52.58v0a4.1,4.1,0,0,0,2.16-1.79C32.18,50.69,31.21,51,30,51Z"/><path class="v" d="M28.94,36.32h0c0.43,0,.78.21,0.78,0.14a1.12,1.12,0,0,0-.78-0.6h0a1.12,1.12,0,0,0-.78.6C28.16,36.53,28.51,36.32,28.94,36.32Z"/><path class="w" d="M31.05,36.32h0c0.43,0,.78.21,0.78,0.14a1.12,1.12,0,0,0-.78-0.6h0a1.12,1.12,0,0,0-.78.6C30.27,36.53,30.62,36.32,31.05,36.32Z"/><ellipse class="x" cx="23.85" cy="32.82" rx="5.03" ry="2.31"/><ellipse class="y" cx="36.15" cy="32.82" rx="5.03" ry="2.31"/><circle class="g" cx="23.91" cy="30.27" r="0.94"/><circle class="g" cx="35.79" cy="30.27" r="0.94"/><path class="d" d="M22.69,26.28a5.78,5.78,0,0,1,2.12-.1,2.62,2.62,0,0,0-2.14-.39A2.65,2.65,0,0,0,21,26.94,6,6,0,0,1,22.69,26.28Z"/><path class="d" d="M37,27.11a5.78,5.78,0,0,0-2.12-.1,2.78,2.78,0,0,1,3.83.76A6,6,0,0,0,37,27.11Z"/><polygon class="z" points="20.77 50.77 30 64.61 39.23 50.77 30 60 20.77 50.77"/><path class="d" d="M29.88,7.58c1.18,2.2,9.37,19.66,14.48,21C50.7,12.31,35.24,6.1,29.88,7.58Z"/><path class="d" d="M40,26.65c-5.67-4.32-7-13.95-7.73-17.29a2.44,2.44,0,0,0-1.45-1.18S29.53,22.1,40,26.65"/><path class="aa" d="M40,26.65c-5.67-4.32-7-13.95-7.73-17.29a2.44,2.44,0,0,0-1.45-1.18S29.53,22.1,40,26.65"/><path class="d" d="M29.88,7.58c-5.82-1.67-20.09,6-14.24,21C39.73,22.31,29.88,7.58,29.88,7.58Z"/><path class="ab" d="M29.88,7.58c-5.82-1.67-20.09,6-14.24,21C39.73,22.31,29.88,7.58,29.88,7.58Z"/><path class="ac" d="M29.88,7.58c1.18,2.2,9.37,19.66,14.48,21C50.7,12.31,35.24,6.1,29.88,7.58Z"/></g></g></svg>