<svg xmlns="http://www.w3.org/2000/svg" xmlns:xlink="http://www.w3.org/1999/xlink" width="60" height="60" viewBox="0 0 60 60"><defs><style>.a{fill:none;}.b{isolation:isolate;}.c{clip-path:url(#a);}.d{fill:#71858a;}.e{fill:#2bbbe7;}.aa,.ab,.ac,.ad,.ae,.ag,.f,.g,.l,.o,.p,.t,.w,.x,.y,.z{opacity:0.5;}.aa,.ab,.ac,.ad,.ae,.ag,.ai,.aj,.ak,.f,.g,.l,.o,.p,.r,.w,.x,.y,.z{mix-blend-mode:multiply;}.f{fill:url(#b);}.g{fill:url(#c);}.h{fill:#1d1d1b;}.i{fill:#966c34;}.j{fill:url(#d);}.ah,.k{opacity:0.3;}.k{fill:url(#e);}.l{fill:url(#f);}.m{fill:url(#g);}.n{fill:url(#h);}.o{fill:url(#i);}.p{fill:url(#j);}.q{fill:url(#k);}.r{fill:url(#l);}.s{fill:#fff;}.t{fill:url(#m);}.u{opacity:0.4;fill:url(#n);}.v{opacity:0.7;fill:url(#o);}.w{fill:url(#p);}.x{fill:url(#q);}.y{fill:url(#r);}.z{fill:url(#s);}.aa{fill:url(#t);}.ab{fill:url(#u);}.ac{fill:url(#v);}.ad{fill:url(#w);}.ae{fill:url(#x);}.af{fill:#e73e51;}.ag{fill:url(#y);}.ah{fill:url(#z);}.ai{fill:url(#aa);}.aj{fill:url(#ab);}.ak{fill:url(#ac);}</style><clipPath id="a"><circle class="a" cx="30" cy="30" r="30"/></clipPath><linearGradient id="b" x1="29.99" y1="9.14" x2="34.6" y2="9.14" gradientUnits="userSpaceOnUse"><stop offset="0" stop-color="#1d1d1b" stop-opacity="0"/><stop offset="0.4" stop-color="#1d1d1b" stop-opacity="0.11"/><stop offset="0.72" stop-color="#1d1d1b" stop-opacity="0.45"/><stop offset="1" stop-color="#1d1d1b"/></linearGradient><linearGradient id="c" x1="25.39" y1="9.14" x2="30" y2="9.14" xlink:href="#b"/><linearGradient id="d" x1="30" y1="59.94" x2="30" y2="41.48" gradientUnits="userSpaceOnUse"><stop offset="0" stop-color="#4f3715" stop-opacity="0"/><stop offset="1" stop-color="#4f3715"/></linearGradient><radialGradient id="e" cx="-50.98" cy="-8.94" r="1.76" gradientTransform="translate(81 56.33)" gradientUnits="userSpaceOnUse"><stop offset="0" stop-color="#4d320e"/><stop offset="0.51" stop-color="#4d320e" stop-opacity="0.52"/><stop offset="1" stop-color="#4d320e" stop-opacity="0"/></radialGradient><linearGradient id="f" x1="13.56" y1="25.55" x2="46.44" y2="25.55" xlink:href="#b"/><linearGradient id="g" x1="40.92" y1="32.25" x2="45.53" y2="32.25" xlink:href="#d"/><linearGradient id="h" x1="14.17" y1="32.25" x2="18.78" y2="32.25" xlink:href="#d"/><linearGradient id="i" x1="42.73" y1="27.84" x2="45.04" y2="27.84" xlink:href="#b"/><linearGradient id="j" x1="14.96" y1="27.84" x2="17.26" y2="27.84" xlink:href="#b"/><linearGradient id="k" x1="15.93" y1="27.1" x2="43.92" y2="27.1" xlink:href="#d"/><linearGradient id="l" x1="29.98" y1="41.47" x2="29.98" y2="39.23" gradientUnits="userSpaceOnUse"><stop offset="0" stop-color="#f0c7bb"/><stop offset="0.18" stop-color="#f2d0c6" stop-opacity="0.84"/><stop offset="0.58" stop-color="#f8e6e1" stop-opacity="0.45"/><stop offset="1" stop-color="#fff" stop-opacity="0"/></linearGradient><linearGradient id="m" x1="-205.95" y1="-129.62" x2="-205.95" y2="-131.43" gradientTransform="translate(-175.94 -96.8) rotate(180)" xlink:href="#e"/><radialGradient id="n" cx="-66.69" cy="23.79" r="1.12" gradientTransform="translate(322.13 -16.03) scale(4.47 2.05)" xlink:href="#e"/><radialGradient id="o" cx="-63.93" cy="23.79" r="1.12" gradientTransform="translate(322.13 -16.03) scale(4.47 2.05)" xlink:href="#e"/><linearGradient id="p" x1="15" y1="15.04" x2="44.71" y2="15.04" xlink:href="#b"/><linearGradient id="q" x1="18.66" y1="16.68" x2="30" y2="16.68" xlink:href="#b"/><linearGradient id="r" x1="30" y1="16.68" x2="41.34" y2="16.68" xlink:href="#b"/><linearGradient id="s" x1="29.99" y1="15.87" x2="37.67" y2="15.87" xlink:href="#b"/><linearGradient id="t" x1="22.31" y1="15.87" x2="30" y2="15.87" xlink:href="#b"/><linearGradient id="u" x1="29.99" y1="11.19" x2="35.71" y2="11.19" xlink:href="#b"/><linearGradient id="v" x1="24.28" y1="11.19" x2="30" y2="11.19" xlink:href="#b"/><linearGradient id="w" x1="29.99" y1="12.9" x2="35.71" y2="12.9" xlink:href="#b"/><linearGradient id="x" x1="24.28" y1="12.9" x2="30" y2="12.9" xlink:href="#b"/><linearGradient id="y" x1="11.54" y1="57.69" x2="48.46" y2="57.69" xlink:href="#b"/><radialGradient id="z" cx="-50.86" cy="-5.16" r="1.66" xlink:href="#e"/><linearGradient id="aa" x1="30.02" y1="42.37" x2="30.02" y2="41.75" gradientUnits="userSpaceOnUse"><stop offset="0" stop-color="#4f3715"/><stop offset="1" stop-color="#4f3715" stop-opacity="0"/></linearGradient><linearGradient id="ab" x1="-204.88" y1="-118.75" x2="-204.88" y2="-119.37" gradientTransform="translate(-175.94 -82.95) rotate(180)" xlink:href="#aa"/><linearGradient id="ac" x1="-207" y1="-118.75" x2="-207" y2="-119.37" gradientTransform="translate(-175.94 -82.95) rotate(180)" xlink:href="#aa"/></defs><title>avatar3</title><g class="b"><g class="c"><circle class="d" cx="30" cy="30" r="30"/><path class="e" d="M34.6,7.22C31,6.91,30,11.54,30,11.54c0-2.39,0-6.15,4.61-4.32"/><path class="e" d="M25.39,7.22C29,6.91,30,11.54,30,11.54c0-2.39,0-6.15-4.61-4.32"/><path class="f" d="M34.6,7.22C31,6.91,30,11.54,30,11.54c0-2.39,0-6.15,4.61-4.32"/><path class="g" d="M25.39,7.22C29,6.91,30,11.54,30,11.54c0-2.39,0-6.15-4.61-4.32"/><polygon class="h" points="40.38 50.77 35.48 50.77 24.52 50.77 19.61 50.77 16.15 60 24.52 60 35.48 60 43.85 60 40.38 50.77"/><path class="i" d="M34.62,47V41.48H25.38V47c-0.53,2.26-2.55,5-9.23,5,0,0,4.62,7.95,13.85,7.95S43.85,52,43.85,52C37.17,52,35.15,49.27,34.62,47Z"/><path class="j" d="M34.62,47V41.48H25.38V47c-0.53,2.26-2.55,5-9.23,5,0,0,4.62,7.95,13.85,7.95S43.85,52,43.85,52C37.17,52,35.15,49.27,34.62,47Z"/><path class="k" d="M30,46.46h0c-1.19,0-2.16-.44-2.16-0.3,0,0.43,1.51,2.46,2.16,2.46v0c0.65,0,2.16-2,2.16-2.46C32.18,46,31.21,46.46,30,46.46Z"/><path class="e" d="M30,6.8c-9.56,0-16.44,5.14-16.44,12.87v5C13.56,35.5,20.44,44.3,30,44.3S46.44,35.5,46.44,24.66v-5C46.44,11.93,39.56,6.8,30,6.8Z"/><path class="l" d="M30,6.8c-9.56,0-16.44,5.14-16.44,12.87v5C13.56,35.5,20.44,44.3,30,44.3S46.44,35.5,46.44,24.66v-5C46.44,11.93,39.56,6.8,30,6.8Z"/><path class="i" d="M18.78,32.25c0,2.55-.16,4.62-1.44,4.62s-3.18-2.07-3.18-4.62,0.6-4.62,1.87-4.62S18.78,29.7,18.78,32.25Z"/><path class="i" d="M40.92,32.25c0,2.55.16,4.62,1.44,4.62s3.18-2.07,3.18-4.62-0.6-4.62-1.87-4.62S40.92,29.7,40.92,32.25Z"/><path class="m" d="M40.92,32.25c0,2.55.16,4.62,1.44,4.62s3.18-2.07,3.18-4.62-0.6-4.62-1.87-4.62S40.92,29.7,40.92,32.25Z"/><path class="e" d="M42.73,35.94c1.27,0,2.31-3.63,2.31-8.1s-1-8.1-2.31-8.1"/><path class="n" d="M18.78,32.25c0,2.55-.16,4.62-1.44,4.62s-3.18-2.07-3.18-4.62,0.6-4.62,1.87-4.62S18.78,29.7,18.78,32.25Z"/><path class="e" d="M17.26,35.94C16,35.94,15,32.31,15,27.84s1-8.1,2.31-8.1"/><path class="o" d="M42.73,35.94c1.27,0,2.31-3.63,2.31-8.1s-1-8.1-2.31-8.1"/><path class="p" d="M17.26,35.94C16,35.94,15,32.31,15,27.84s1-8.1,2.31-8.1"/><path class="i" d="M43.85,29.94C43.85,43.08,33,46.09,30,46.09s-13.85-3-13.85-16.15C16.15,20,13,8.11,30,8.11,45.79,8.11,43.85,19,43.85,29.94Z"/><path class="q" d="M43.85,29.94C43.85,43.08,33,46.09,30,46.09s-13.85-3-13.85-16.15C16.15,20,13,8.11,30,8.11,45.79,8.11,43.85,19,43.85,29.94Z"/><path class="r" d="M30,39.79h0c-3.61,0-6.53-.76-6.53-0.51,0,0.75,3.41,2.19,6.53,2.19h0c3.12,0,6.53-1.45,6.53-2.19C36.54,39,33.61,39.79,30,39.79Z"/><path class="s" d="M30,40.6h0c-2.55,0-4.62-.4-4.62-0.27,0,0.39,2.07,1.14,4.62,1.14h0c2.55,0,4.62-.75,4.62-1.14C34.65,40.21,32.58,40.6,30,40.6Z"/><path class="t" d="M30,34.4h0c1.19,0,2.16.32,2.16,0.21A4.1,4.1,0,0,0,30,32.83v0a4.1,4.1,0,0,0-2.16,1.79C27.85,34.72,28.82,34.4,30,34.4Z"/><ellipse class="u" cx="23.85" cy="32.76" rx="5.03" ry="2.31"/><ellipse class="v" cx="36.15" cy="32.76" rx="5.03" ry="2.31"/><circle class="h" cx="23.91" cy="30.2" r="0.94"/><circle class="h" cx="35.79" cy="30.2" r="0.94"/><path class="e" d="M22.64,26.2a7.23,7.23,0,0,1,2.65-.12,3.27,3.27,0,0,0-2.67-.49A3.31,3.31,0,0,0,20.5,27,7.43,7.43,0,0,1,22.64,26.2Z"/><path class="e" d="M37.06,27a7.21,7.21,0,0,0-2.65-.12,3.27,3.27,0,0,1,2.67-.49,3.31,3.31,0,0,1,2.11,1.44A7.43,7.43,0,0,0,37.06,27Z"/><path class="e" d="M30,7.12c-20.83,0-13.73,17-14.19,15.79C18,8,30,17.95,30,17.95s12-9.91,14.19,5C43.82,24.07,49.59,7.12,30,7.12Z"/><path class="w" d="M30,7.12c-20.83,0-13.73,17-14.19,15.79C18,8,30,17.95,30,17.95s12-9.91,14.19,5C43.82,24.07,49.59,7.12,30,7.12Z"/><path class="e" d="M37.67,14c-6-.23-7.68,4-7.68,4,0-1.75.05-5.38,7.68-4"/><path class="e" d="M22.31,14c6-.23,7.68,4,7.68,4,0-1.75-.05-5.38-7.68-4"/><path class="e" d="M18.66,17C24.31,14.9,30,18,30,18s-4-5.36-11.34-1"/><path class="e" d="M41.34,17C35.69,14.9,30,18,30,18s4-5.36,11.34-1"/><path class="x" d="M18.66,17C24.31,14.9,30,18,30,18s-4-5.36-11.34-1"/><path class="y" d="M41.34,17C35.69,14.9,30,18,30,18s4-5.36,11.34-1"/><path class="z" d="M37.67,14c-6-.23-7.68,4-7.68,4,0-1.75.05-5.38,7.68-4"/><path class="aa" d="M22.31,14c6-.23,7.68,4,7.68,4,0-1.75-.05-5.38-7.68-4"/><path class="e" d="M35.71,9.27C31.21,9,30,13.6,30,13.6c0-2.39,0-6.15,5.72-4.32"/><path class="e" d="M24.28,9.27C28.78,9,30,13.6,30,13.6c0-2.39,0-6.15-5.72-4.32"/><path class="ab" d="M35.71,9.27C31.21,9,30,13.6,30,13.6c0-2.39,0-6.15,5.72-4.32"/><path class="ac" d="M24.28,9.27C28.78,9,30,13.6,30,13.6c0-2.39,0-6.15-5.72-4.32"/><path class="e" d="M35.71,11.46c-4.5-.24-5.72,3.25-5.72,3.25,0-1.79,0-4.62,5.72-3.25"/><path class="e" d="M24.28,11.46c4.5-.24,5.72,3.25,5.72,3.25,0-1.79,0-4.62-5.72-3.25"/><path class="ad" d="M35.71,11.46c-4.5-.24-5.72,3.25-5.72,3.25,0-1.79,0-4.62,5.72-3.25"/><path class="ae" d="M24.28,11.46c4.5-.24,5.72,3.25,5.72,3.25,0-1.79,0-4.62-5.72-3.25"/><path class="s" d="M41.35,50.77H39.22s0,0,0,.06c0,2.55-4.13,4.62-9.23,4.62s-9.23-2.07-9.23-4.62c0,0,0,0,0-.06H18.65a7.11,7.11,0,0,0-7.12,7.12v6.73H48.46V57.88A7.11,7.11,0,0,0,41.35,50.77Z"/><path class="af" d="M30,56.32c5.63,0,10.19-2.94,10.19-5.49,0,0,0,0,0-.06h-1s0,0,0,.06c0,2.55-4.13,4.62-9.23,4.62s-9.23-2.07-9.23-4.62c0,0,0,0,0-.06h-1s0,0,0,.06C19.81,53.38,24.37,56.32,30,56.32Z"/><path class="ag" d="M41.35,50.77H39.22s0,0,0,.06c0,2.55-4.13,4.62-9.23,4.62s-9.23-2.07-9.23-4.62c0,0,0,0,0-.06H18.65a7.11,7.11,0,0,0-7.12,7.12v6.73H48.46V57.88A7.11,7.11,0,0,0,41.35,50.77Z"/><path class="ah" d="M30.15,50.49h0c-1.19,0-2.16-.32-2.16-0.21a4.1,4.1,0,0,0,2.16,1.79v0a4.1,4.1,0,0,0,2.16-1.79C32.31,50.17,31.34,50.49,30.15,50.49Z"/><path class="ai" d="M30,41.91h0c-1.19,0-2.16-.21-2.16-0.14a4.39,4.39,0,0,0,2.16.6h0a4.39,4.39,0,0,0,2.16-.6C32.18,41.7,31.21,41.91,30,41.91Z"/><path class="aj" d="M28.94,36.26c0.43,0,.78.21,0.78,0.14a1.12,1.12,0,0,0-.78-0.6h0a1.12,1.12,0,0,0-.78.6c0,0.07.35-.14,0.78-0.14h0"/><path class="ak" d="M31.05,36.26h0c0.43,0,.78.21,0.78,0.14a1.12,1.12,0,0,0-.78-0.6h0a1.12,1.12,0,0,0-.78.6C30.27,36.47,30.62,36.26,31.05,36.26Z"/></g></g></svg>