<?xml version="1.0" encoding="utf-8"?>
<!-- Generator: Adobe Illustrator 16.0.0, SVG Export Plug-In . SVG Version: 6.00 Build 0)  -->
<!DOCTYPE svg PUBLIC "-//W3C//DTD SVG 1.1//EN" "http://www.w3.org/Graphics/SVG/1.1/DTD/svg11.dtd">
<svg version="1.1" id="Layer_1" xmlns="http://www.w3.org/2000/svg" xmlns:xlink="http://www.w3.org/1999/xlink" x="0px" y="0px"
	 width="13px" height="13px" viewBox="0 0 13 13" enable-background="new 0 0 13 13" xml:space="preserve">
<title>klok</title>
<path fill="#FFFFFF" d="M6.5,13C2.91,13,0,10.09,0,6.5S2.91,0,6.5,0S13,2.91,13,6.5C12.994,10.088,10.088,12.994,6.5,13z M6.5,1
	C3.462,1,1,3.462,1,6.5C1,9.537,3.462,12,6.5,12C9.537,12,12,9.537,12,6.5C11.994,3.465,9.535,1.005,6.5,1z"/>
<path fill="#FFFFFF" d="M6.5,8C6.224,8,6,7.776,6,7.5v-5C6,2.224,6.224,2,6.5,2S7,2.224,7,2.5v5C7,7.776,6.776,8,6.5,8z"/>
<path fill="#FFFFFF" d="M8.3,9.8C8.168,9.798,8.043,9.744,7.95,9.65l-1.77-1.76c-0.196-0.197-0.196-0.515,0-0.711
	c0.196-0.196,0.514-0.196,0.71,0L8.65,8.95C8.844,9.146,8.84,9.464,8.643,9.657C8.551,9.747,8.428,9.799,8.3,9.8z"/>
</svg>
